<svg width="17" height="16" viewBox="0 0 17 16" fill="none" xmlns="http://www.w3.org/2000/svg">
<g clip-path="url(#clip0_15_27)">
<path d="M16.5149 5.9625C16.6367 5.86563 16.818 5.95625 16.818 6.10938V12.5C16.818 13.3281 16.1461 14 15.318 14H2.31799C1.48987 14 0.817993 13.3281 0.817993 12.5V6.1125C0.817993 5.95625 0.996118 5.86875 1.12112 5.96562C1.82112 6.50937 2.74924 7.2 5.93674 9.51562C6.59612 9.99687 7.70862 11.0094 8.81799 11.0031C9.93362 11.0125 11.068 9.97813 11.7024 9.51562C14.8899 7.2 15.8149 6.50625 16.5149 5.9625ZM8.81799 10C9.54299 10.0125 10.5867 9.0875 11.1117 8.70625C15.2586 5.69688 15.5742 5.43437 16.5305 4.68437C16.7117 4.54375 16.818 4.325 16.818 4.09375V3.5C16.818 2.67188 16.1461 2 15.318 2H2.31799C1.48987 2 0.817993 2.67188 0.817993 3.5V4.09375C0.817993 4.325 0.924243 4.54062 1.10549 4.68437C2.06174 5.43125 2.37737 5.69688 6.52424 8.70625C7.04924 9.0875 8.09299 10.0125 8.81799 10Z" fill="#1F2937"/>
</g>
<defs>
<clipPath id="clip0_15_27">
<rect width="16" height="16" fill="white" transform="translate(0.817993)"/>
</clipPath>
</defs>
</svg>
