<svg width="18" height="25" viewBox="0 0 18 25" fill="none" xmlns="http://www.w3.org/2000/svg">
<path d="M9.00312 10.9062C7.01562 10.9062 5.41249 12.5094 5.41249 14.4969C5.41249 16.4844 7.01562 18.0875 9.00312 18.0875C10.9906 18.0875 12.5937 16.4844 12.5937 14.4969C12.5937 12.5094 10.9906 10.9062 9.00312 10.9062ZM9.00312 16.8312C7.71874 16.8312 6.66874 15.7844 6.66874 14.4969C6.66874 13.2094 7.71562 12.1625 9.00312 12.1625C10.2906 12.1625 11.3375 13.2094 11.3375 14.4969C11.3375 15.7844 10.2875 16.8312 9.00312 16.8312ZM13.5781 10.7594C13.5781 11.225 13.2031 11.5969 12.7406 11.5969C12.275 11.5969 11.9031 11.2219 11.9031 10.7594C11.9031 10.2969 12.2781 9.92185 12.7406 9.92185C13.2031 9.92185 13.5781 10.2969 13.5781 10.7594ZM15.9562 11.6094C15.9031 10.4875 15.6469 9.49373 14.825 8.67498C14.0062 7.85623 13.0125 7.59998 11.8906 7.54373C10.7344 7.4781 7.26874 7.4781 6.11249 7.54373C4.99374 7.59685 3.99999 7.8531 3.17812 8.67185C2.35624 9.4906 2.10312 10.4844 2.04687 11.6062C1.98124 12.7625 1.98124 16.2281 2.04687 17.3843C2.09999 18.5062 2.35624 19.5 3.17812 20.3187C3.99999 21.1375 4.99062 21.3937 6.11249 21.45C7.26874 21.5156 10.7344 21.5156 11.8906 21.45C13.0125 21.3968 14.0062 21.1406 14.825 20.3187C15.6437 19.5 15.9 18.5062 15.9562 17.3843C16.0219 16.2281 16.0219 12.7656 15.9562 11.6094ZM14.4625 18.625C14.2187 19.2375 13.7469 19.7094 13.1312 19.9562C12.2094 20.3219 10.0219 20.2375 9.00312 20.2375C7.98437 20.2375 5.79374 20.3187 4.87499 19.9562C4.26249 19.7125 3.79062 19.2406 3.54374 18.625C3.17812 17.7031 3.26249 15.5156 3.26249 14.4969C3.26249 13.4781 3.18124 11.2875 3.54374 10.3687C3.78749 9.75623 4.25937 9.28435 4.87499 9.03748C5.79687 8.67185 7.98437 8.75623 9.00312 8.75623C10.0219 8.75623 12.2125 8.67498 13.1312 9.03748C13.7437 9.28123 14.2156 9.7531 14.4625 10.3687C14.8281 11.2906 14.7437 13.4781 14.7437 14.4969C14.7437 15.5156 14.8281 17.7062 14.4625 18.625Z" fill="#9333EA"/>
</svg>
