<svg width="114" height="50" viewBox="0 0 114 50" fill="none" xmlns="http://www.w3.org/2000/svg">
<g clip-path="url(#clip0_15_37)">
<path d="M106.962 0H6.96249V50H106.962V0Z" fill="#DDDDDD"/>
<path d="M31.1075 29.305H33.1875V30.785H26.7875V29.305H29.1375V22.565C29.1375 22.2983 29.1442 22.0216 29.1575 21.735L27.4975 23.125C27.3975 23.205 27.3008 23.2516 27.2075 23.265C27.1142 23.285 27.0275 23.2883 26.9475 23.275C26.8608 23.255 26.7875 23.225 26.7275 23.185C26.6608 23.145 26.6108 23.1016 26.5775 23.055L25.9575 22.205L29.4875 19.205H31.1075V29.305ZM43.0675 25.005C43.0675 26.0116 42.9608 26.885 42.7475 27.625C42.5275 28.3716 42.2275 28.9883 41.8475 29.475C41.4675 29.9616 41.0175 30.3216 40.4975 30.555C39.9775 30.795 39.4175 30.915 38.8175 30.915C38.2108 30.915 37.6508 30.795 37.1375 30.555C36.6242 30.3216 36.1775 29.9616 35.7975 29.475C35.4175 28.9883 35.1208 28.3716 34.9075 27.625C34.6942 26.885 34.5875 26.0116 34.5875 25.005C34.5875 23.9916 34.6942 23.1116 34.9075 22.365C35.1208 21.625 35.4175 21.0116 35.7975 20.525C36.1775 20.045 36.6242 19.685 37.1375 19.445C37.6508 19.205 38.2108 19.085 38.8175 19.085C39.4175 19.085 39.9775 19.205 40.4975 19.445C41.0175 19.685 41.4675 20.045 41.8475 20.525C42.2275 21.0116 42.5275 21.625 42.7475 22.365C42.9608 23.1116 43.0675 23.9916 43.0675 25.005ZM41.0275 25.005C41.0275 24.165 40.9675 23.4716 40.8475 22.925C40.7208 22.3716 40.5575 21.9316 40.3575 21.605C40.1508 21.285 39.9142 21.0583 39.6475 20.925C39.3808 20.7916 39.1042 20.725 38.8175 20.725C38.5308 20.725 38.2575 20.7916 37.9975 20.925C37.7308 21.0583 37.4975 21.285 37.2975 21.605C37.0908 21.9316 36.9275 22.3716 36.8075 22.925C36.6875 23.4716 36.6275 24.165 36.6275 25.005C36.6275 25.8383 36.6875 26.5316 36.8075 27.085C36.9275 27.6316 37.0908 28.0683 37.2975 28.395C37.4975 28.7216 37.7308 28.9483 37.9975 29.075C38.2575 29.2083 38.5308 29.275 38.8175 29.275C39.1042 29.275 39.3808 29.2083 39.6475 29.075C39.9142 28.9483 40.1508 28.7216 40.3575 28.395C40.5575 28.0683 40.7208 27.6316 40.8475 27.085C40.9675 26.5316 41.0275 25.8383 41.0275 25.005ZM52.3475 25.005C52.3475 26.0116 52.2408 26.885 52.0275 27.625C51.8075 28.3716 51.5075 28.9883 51.1275 29.475C50.7475 29.9616 50.2975 30.3216 49.7775 30.555C49.2575 30.795 48.6975 30.915 48.0975 30.915C47.4908 30.915 46.9308 30.795 46.4175 30.555C45.9042 30.3216 45.4575 29.9616 45.0775 29.475C44.6975 28.9883 44.4008 28.3716 44.1875 27.625C43.9742 26.885 43.8675 26.0116 43.8675 25.005C43.8675 23.9916 43.9742 23.1116 44.1875 22.365C44.4008 21.625 44.6975 21.0116 45.0775 20.525C45.4575 20.045 45.9042 19.685 46.4175 19.445C46.9308 19.205 47.4908 19.085 48.0975 19.085C48.6975 19.085 49.2575 19.205 49.7775 19.445C50.2975 19.685 50.7475 20.045 51.1275 20.525C51.5075 21.0116 51.8075 21.625 52.0275 22.365C52.2408 23.1116 52.3475 23.9916 52.3475 25.005ZM50.3075 25.005C50.3075 24.165 50.2475 23.4716 50.1275 22.925C50.0008 22.3716 49.8375 21.9316 49.6375 21.605C49.4308 21.285 49.1942 21.0583 48.9275 20.925C48.6608 20.7916 48.3842 20.725 48.0975 20.725C47.8108 20.725 47.5375 20.7916 47.2775 20.925C47.0108 21.0583 46.7775 21.285 46.5775 21.605C46.3708 21.9316 46.2075 22.3716 46.0875 22.925C45.9675 23.4716 45.9075 24.165 45.9075 25.005C45.9075 25.8383 45.9675 26.5316 46.0875 27.085C46.2075 27.6316 46.3708 28.0683 46.5775 28.395C46.7775 28.7216 47.0108 28.9483 47.2775 29.075C47.5375 29.2083 47.8108 29.275 48.0975 29.275C48.3842 29.275 48.6608 29.2083 48.9275 29.075C49.1942 28.9483 49.4308 28.7216 49.6375 28.395C49.8375 28.0683 50.0008 27.6316 50.1275 27.085C50.2475 26.5316 50.3075 25.8383 50.3075 25.005ZM65.0575 28.135L64.0075 29.165L61.2975 26.455L58.5575 29.185L57.5075 28.155L60.2475 25.405L57.6375 22.805L58.6775 21.765L61.2875 24.365L63.8775 21.775L64.9375 22.815L62.3375 25.415L65.0575 28.135ZM73.4575 21.005L73.0575 23.415C73.3108 23.3616 73.5541 23.325 73.7875 23.305C74.0208 23.2783 74.2475 23.265 74.4675 23.265C75.0742 23.265 75.6108 23.355 76.0775 23.535C76.5442 23.715 76.9342 23.965 77.2475 24.285C77.5608 24.605 77.7975 24.9816 77.9575 25.415C78.1175 25.8416 78.1975 26.305 78.1975 26.805C78.1975 27.4183 78.0908 27.9783 77.8775 28.485C77.6575 28.9916 77.3575 29.425 76.9775 29.785C76.5908 30.145 76.1341 30.4216 75.6075 30.615C75.0808 30.815 74.5108 30.915 73.8975 30.915C73.5308 30.915 73.1842 30.8783 72.8575 30.805C72.5375 30.725 72.2342 30.625 71.9475 30.505C71.6608 30.3783 71.3975 30.2316 71.1575 30.065C70.9108 29.905 70.6908 29.735 70.4975 29.555L71.1075 28.715C71.2341 28.535 71.4042 28.445 71.6175 28.445C71.7508 28.445 71.8842 28.485 72.0175 28.565C72.1575 28.6516 72.3175 28.745 72.4975 28.845C72.6775 28.9516 72.8875 29.045 73.1275 29.125C73.3742 29.2116 73.6675 29.255 74.0075 29.255C74.3675 29.255 74.6875 29.1983 74.9675 29.085C75.2408 28.965 75.4708 28.7983 75.6575 28.585C75.8442 28.3783 75.9841 28.1283 76.0775 27.835C76.1708 27.5483 76.2175 27.2316 76.2175 26.885C76.2175 26.2583 76.0342 25.7683 75.6675 25.415C75.3008 25.0616 74.7608 24.885 74.0475 24.885C73.4942 24.885 72.9308 24.985 72.3575 25.185L71.1275 24.835L72.0875 19.215H77.7975V20.055C77.7975 20.3416 77.7108 20.5716 77.5375 20.745C77.3575 20.9183 77.0575 21.005 76.6375 21.005H73.4575ZM87.9675 25.005C87.9675 26.0116 87.8575 26.885 87.6375 27.625C87.4242 28.3716 87.1275 28.9883 86.7475 29.475C86.3675 29.9616 85.9175 30.3216 85.3975 30.555C84.8775 30.795 84.3142 30.915 83.7075 30.915C83.1075 30.915 82.5508 30.795 82.0375 30.555C81.5175 30.3216 81.0708 29.9616 80.6975 29.475C80.3175 28.9883 80.0208 28.3716 79.8075 27.625C79.5942 26.885 79.4875 26.0116 79.4875 25.005C79.4875 23.9916 79.5942 23.1116 79.8075 22.365C80.0208 21.625 80.3175 21.0116 80.6975 20.525C81.0708 20.045 81.5175 19.685 82.0375 19.445C82.5508 19.205 83.1075 19.085 83.7075 19.085C84.3142 19.085 84.8775 19.205 85.3975 19.445C85.9175 19.685 86.3675 20.045 86.7475 20.525C87.1275 21.0116 87.4242 21.625 87.6375 22.365C87.8575 23.1116 87.9675 23.9916 87.9675 25.005ZM85.9275 25.005C85.9275 24.165 85.8642 23.4716 85.7375 22.925C85.6175 22.3716 85.4542 21.9316 85.2475 21.605C85.0408 21.285 84.8041 21.0583 84.5375 20.925C84.2708 20.7916 83.9942 20.725 83.7075 20.725C83.4275 20.725 83.1542 20.7916 82.8875 20.925C82.6275 21.0583 82.3941 21.285 82.1875 21.605C81.9875 21.9316 81.8275 22.3716 81.7075 22.925C81.5875 23.4716 81.5275 24.165 81.5275 25.005C81.5275 25.8383 81.5875 26.5316 81.7075 27.085C81.8275 27.6316 81.9875 28.0683 82.1875 28.395C82.3941 28.7216 82.6275 28.9483 82.8875 29.075C83.1542 29.2083 83.4275 29.275 83.7075 29.275C83.9942 29.275 84.2708 29.2083 84.5375 29.075C84.8041 28.9483 85.0408 28.7216 85.2475 28.395C85.4542 28.0683 85.6175 27.6316 85.7375 27.085C85.8642 26.5316 85.9275 25.8383 85.9275 25.005Z" fill="#999999"/>
</g>
<defs>
<clipPath id="clip0_15_37">
<rect width="100" height="50" fill="white" transform="translate(6.96249)"/>
</clipPath>
</defs>
</svg>
