<svg width="18" height="25" viewBox="0 0 18 25" fill="none" xmlns="http://www.w3.org/2000/svg">
<path d="M15.3553 11.2411C15.3655 11.3833 15.3655 11.5254 15.3655 11.6675C15.3655 16.0025 12.066 20.9975 6.03553 20.9975C4.17766 20.9975 2.45178 20.4594 1 19.5254C1.26397 19.5558 1.51775 19.566 1.79188 19.566C3.32484 19.566 4.73603 19.0483 5.86294 18.165C4.42131 18.1345 3.21319 17.1904 2.79694 15.8909C3 15.9213 3.20303 15.9416 3.41625 15.9416C3.71066 15.9416 4.00509 15.901 4.27919 15.83C2.77666 15.5254 1.64972 14.2056 1.64972 12.6117V12.5711C2.08625 12.8148 2.59391 12.967 3.13194 12.9873C2.24869 12.3985 1.67003 11.3934 1.67003 10.2563C1.67003 9.64722 1.83244 9.08884 2.11672 8.60153C3.73094 10.5914 6.15734 11.8908 8.87813 12.033C8.82738 11.7893 8.79691 11.5356 8.79691 11.2818C8.79691 9.47463 10.2588 8.00256 12.0761 8.00256C13.0203 8.00256 13.873 8.3985 14.472 9.03809C15.2131 8.89597 15.9238 8.62184 16.5533 8.24622C16.3096 9.00766 15.7918 9.64725 15.1116 10.0533C15.7715 9.98228 16.4111 9.7995 16.9999 9.54572C16.5533 10.1954 15.9949 10.7741 15.3553 11.2411Z" fill="#3B82F6"/>
</svg>
